HIERARCHY
ROOT Hips
{
    OFFSET 0.000000 0.000000 0.000000
    CHANNELS 6 Xposition Yposition Zposition Zrotation Xrotation Yrotation
    JOINT Spine
    {
        OFFSET -0.000000 8.216963 0.000000
        CHANNELS 3 Zrotation Xrotation Yrotation
        JOINT Spine1
        {
            OFFSET 0.000000 21.842321 0.000001
            CHANNELS 3 Zrotation Xrotation Yrotation
            JOINT Neck
            {
                OFFSET -0.000000 21.944920 -0.000000
                CHANNELS 3 Zrotation Xrotation Yrotation
                JOINT Head
                {
                    OFFSET 0.000000 13.250616 1.860770
                    CHANNELS 3 Zrotation Xrotation Yrotation
                    End Site
                    {
                        OFFSET 0.000000 18.607679 0.000000
                    }
                }
            }
            JOINT LeftShoulder
            {
                OFFSET 3.712020 16.075399 -0.493154
                CHANNELS 3 Zrotation Xrotation Yrotation
                JOINT LeftArm
                {
                    OFFSET 15.576395 0.000004 0.000000
                    CHANNELS 3 Zrotation Xrotation Yrotation
                    JOINT LeftForeArm
                    {
                        OFFSET 23.916098 0.000006 -0.000000
                        CHANNELS 3 Zrotation Xrotation Yrotation
                        JOINT LeftHand
                        {
                            OFFSET 23.235397 -0.000000 0.000000
                            CHANNELS 3 Zrotation Xrotation Yrotation
                            JOINT LeftHandThumb1
                            {
                                OFFSET 1.944498 -2.209659 3.093530
                                CHANNELS 3 Zrotation Xrotation Yrotation
                                JOINT LeftHandThumb2
                                {
                                    OFFSET 2.936881 0.000002 -0.000004
                                    CHANNELS 3 Zrotation Xrotation Yrotation
                                    JOINT LeftHandThumb3
                                    {
                                        OFFSET 2.510182 -0.000003 0.000003
                                        CHANNELS 3 Zrotation Xrotation Yrotation
                                        End Site
                                        {
                                            OFFSET 2.335431 0.000000 0.000000
                                        }
                                    }
                                }
                            }
                            JOINT LeftHandIndex1
                            {
                                OFFSET 7.954782 -0.000002 3.093530
                                CHANNELS 3 Zrotation Xrotation Yrotation
                                JOINT LeftHandIndex2
                                {
                                    OFFSET 4.419319 0.000001 -0.000000
                                    CHANNELS 3 Zrotation Xrotation Yrotation
                                    JOINT LeftHandIndex3
                                    {
                                        OFFSET 2.209659 -0.000000 -0.000000
                                        CHANNELS 3 Zrotation Xrotation Yrotation
                                        End Site
                                        {
                                            OFFSET 2.055832 0.000000 0.000000
                                        }
                                    }
                                }
                            }
                            JOINT LeftHandMiddle1
                            {
                                OFFSET 7.954784 -0.000005 1.025280
                                CHANNELS 3 Zrotation Xrotation Yrotation
                                JOINT LeftHandMiddle2
                                {
                                    OFFSET 4.861260 -0.000002 0.000000
                                    CHANNELS 3 Zrotation Xrotation Yrotation
                                    JOINT LeftHandMiddle3
                                    {
                                        OFFSET 2.651592 -0.000000 -0.000000
                                        CHANNELS 3 Zrotation Xrotation Yrotation
                                        End Site
                                        {
                                            OFFSET 2.466997 0.000000 0.000000
                                        }
                                    }
                                }
                            }
                            JOINT LeftHandRing1
                            {
                                OFFSET 7.512850 -0.000003 -1.025280
                                CHANNELS 3 Zrotation Xrotation Yrotation
                                JOINT LeftHandRing2
                                {
                                    OFFSET 4.419321 -0.000005 0.000000
                                    CHANNELS 3 Zrotation Xrotation Yrotation
                                    JOINT LeftHandRing3
                                    {
                                        OFFSET 2.209659 0.000005 0.000000
                                        CHANNELS 3 Zrotation Xrotation Yrotation
                                        End Site
                                        {
                                            OFFSET 2.055832 0.000000 0.000000
                                        }
                                    }
                                }
                            }
                            JOINT LeftHandPinky1
                            {
                                OFFSET 7.070921 -0.000005 -3.093531
                                CHANNELS 3 Zrotation Xrotation Yrotation
                                JOINT LeftHandPinky2
                                {
                                    OFFSET 3.535459 -0.000004 -0.000001
                                    CHANNELS 3 Zrotation Xrotation Yrotation
                                    JOINT LeftHandPinky3
                                    {
                                        OFFSET 1.767731 -0.000002 -0.000001
                                        CHANNELS 3 Zrotation Xrotation Yrotation
                                        End Site
                                        {
                                            OFFSET 1.644668 0.000000 0.000000
                                        }
                                    }
                                }
                            }
                        }
                    }
                }
            }
            JOINT RightShoulder
            {
                OFFSET -3.712019 16.075397 -0.493154
                CHANNELS 3 Zrotation Xrotation Yrotation
                JOINT RightArm
                {
                    OFFSET -15.576399 -0.000003 0.000000
                    CHANNELS 3 Zrotation Xrotation Yrotation
                    JOINT RightForeArm
                    {
                        OFFSET -23.916103 0.000000 0.000000
                        CHANNELS 3 Zrotation Xrotation Yrotation
                        JOINT RightHand
                        {
                            OFFSET -23.235397 -0.000002 -0.000000
                            CHANNELS 3 Zrotation Xrotation Yrotation
                            JOINT RightHandThumb1
                            {
                                OFFSET -1.944501 -2.209665 3.093530
                                CHANNELS 3 Zrotation Xrotation Yrotation
                                JOINT RightHandThumb2
                                {
                                    OFFSET -2.936877 -0.000001 0.000003
                                    CHANNELS 3 Zrotation Xrotation Yrotation
                                    JOINT RightHandThumb3
                                    {
                                        OFFSET -2.510183 0.000003 -0.000004
                                        CHANNELS 3 Zrotation Xrotation Yrotation
                                        End Site
                                        {
                                            OFFSET -2.335431 0.000000 0.000000
                                        }
                                    }
                                }
                            }
                            JOINT RightHandIndex1
                            {
                                OFFSET -7.954779 0.000005 3.093530
                                CHANNELS 3 Zrotation Xrotation Yrotation
                                JOINT RightHandIndex2
                                {
                                    OFFSET -4.419320 0.000000 -0.000000
                                    CHANNELS 3 Zrotation Xrotation Yrotation
                                    JOINT RightHandIndex3
                                    {
                                        OFFSET -2.209658 0.000002 -0.000000
                                        CHANNELS 3 Zrotation Xrotation Yrotation
                                        End Site
                                        {
                                            OFFSET -2.055832 0.000000 0.000000
                                        }
                                    }
                                }
                            }
                            JOINT RightHandMiddle1
                            {
                                OFFSET -7.954782 -0.000001 1.025280
                                CHANNELS 3 Zrotation Xrotation Yrotation
                                JOINT RightHandMiddle2
                                {
                                    OFFSET -4.861260 -0.000005 -0.000000
                                    CHANNELS 3 Zrotation Xrotation Yrotation
                                    JOINT RightHandMiddle3
                                    {
                                        OFFSET -2.651591 -0.000004 -0.000000
                                        CHANNELS 3 Zrotation Xrotation Yrotation
                                        End Site
                                        {
                                            OFFSET -2.466997 0.000000 0.000000
                                        }
                                    }
                                }
                            }
                            JOINT RightHandRing1
                            {
                                OFFSET -7.512852 -0.000002 -1.025280
                                CHANNELS 3 Zrotation Xrotation Yrotation
                                JOINT RightHandRing2
                                {
                                    OFFSET -4.419322 -0.000001 -0.000000
                                    CHANNELS 3 Zrotation Xrotation Yrotation
                                    JOINT RightHandRing3
                                    {
                                        OFFSET -2.209661 -0.000001 -0.000000
                                        CHANNELS 3 Zrotation Xrotation Yrotation
                                        End Site
                                        {
                                            OFFSET -2.055832 0.000000 0.000000
                                        }
                                    }
                                }
                            }
                            JOINT RightHandPinky1
                            {
                                OFFSET -7.070920 -0.000001 -3.093530
                                CHANNELS 3 Zrotation Xrotation Yrotation
                                JOINT RightHandPinky2
                                {
                                    OFFSET -3.535458 0.000001 0.000001
                                    CHANNELS 3 Zrotation Xrotation Yrotation
                                    JOINT RightHandPinky3
                                    {
                                        OFFSET -1.767730 -0.000004 -0.000001
                                        CHANNELS 3 Zrotation Xrotation Yrotation
                                        End Site
                                        {
                                            OFFSET -1.644668 0.000000 0.000000
                                        }
                                    }
                                }
                            }
                        }
                    }
                }
            }
        }
    }
    JOINT LeftUpLeg
    {
        OFFSET 9.303840 0.000002 0.000000
        CHANNELS 3 Zrotation Xrotation Yrotation
        JOINT LeftLeg
        {
            OFFSET -0.000000 -40.203197 -0.000000
            CHANNELS 3 Zrotation Xrotation Yrotation
            JOINT LeftFoot
            {
                OFFSET 0.000000 -39.931198 0.000000
                CHANNELS 3 Zrotation Xrotation Yrotation
                JOINT LeftToeBase
                {
                    OFFSET 0.000001 -6.047500 13.955799
                    CHANNELS 3 Zrotation Xrotation Yrotation
                    End Site
                    {
                        OFFSET 0.000000 0.000000 3.721536
                    }
                }
            }
        }
    }
    JOINT RightUpLeg
    {
        OFFSET -9.303839 -0.000002 -0.000000
        CHANNELS 3 Zrotation Xrotation Yrotation
        JOINT RightLeg
        {
            OFFSET -0.000000 -40.203201 0.000000
            CHANNELS 3 Zrotation Xrotation Yrotation
            JOINT RightFoot
            {
                OFFSET 0.000001 -39.931198 -0.000001
                CHANNELS 3 Zrotation Xrotation Yrotation
                JOINT RightToeBase
                {
                    OFFSET -0.000000 -6.047500 13.955803
                    CHANNELS 3 Zrotation Xrotation Yrotation
                    End Site
                    {
                        OFFSET 0.000000 0.000000 3.721536
                    }
                }
            }
        }
    }
}
MOTION
Frames:    4
Frame Time:    0.008333
-5.051189    90.929947    -5.304807    1.581552    -0.500459    1.191040    0.015569    -3.954056    0.225785    0.378350    1.465809    0.215501    2.030145    -1.306658    -1.610585    2.498333    -2.056337    -1.567129    2.670656    0.448831    -1.204817    0.460457    0.911943    -1.023677    0.002972    -0.894152    0.190411    -0.143366    -0.044867    2.471978    28.697573    36.280907    -42.816921    -22.867783    -4.684818    22.867783    -0.000000    0.000000    -0.000000    -0.030084    17.999952    -0.013041    -0.028612    -0.000004    -0.000000    -0.028611    0.000003    0.000000    -0.028611    -0.000000    -0.011169    -0.028612    0.000000    -0.000000    -0.028610    -0.000001    0.000001    -0.028610    -0.000001    0.007447    -0.028613    0.000000    -0.000001    -0.028612    -0.000000    0.000000    -0.030083    -17.999952    0.005596    -0.028612    0.000003    -0.000000    -0.028612    -0.000000    0.000000    -2.598075    0.095179    1.661668    1.988956    0.463343    3.150026    0.058211    -1.638583    2.034859    3.716258    -0.525745    -1.800173    -28.697580    36.280907    42.816933    22.867790    -4.684816    -22.867792    -0.000000    0.000000    -0.000000    0.030086    17.999956    0.013043    0.028612    -0.000001    -0.000001    0.028612    -0.000001    -0.000000    0.028612    0.000000    0.011170    0.028614    -0.000001    0.000001    0.028611    0.000001    -0.000001    0.028614    -0.000001    -0.007445    0.028612    0.000000    -0.000000    0.028612    -0.000000    0.000001    0.030085    -17.999952    -0.005594    0.028613    -0.000004    -0.000000    0.028611    0.000001    -0.000000    1.019703    1.674372    3.123917    0.000000    7.451340    0.000001    0.425745    -2.161178    5.818603    0.000001    -1.153827    0.000002    -0.457915    3.002703    -1.908083    -0.000000    5.102132    -0.000000    -1.246828    -1.699516    -1.163332    0.000000    -1.254399    0.000000    
-5.569173    91.029587    -5.819720    1.539691    -1.137413    1.493529    0.016665    -4.944398    0.193356    -0.395068    4.367143    0.222165    2.114620    -0.885255    -2.096809    2.356844    -0.974630    -2.089689    4.221162    1.091112    -2.229287    -0.224509    1.251213    -1.440897    0.008118    -1.209619    0.384585    -2.537849    -0.051575    3.159487    28.684046    36.291023    -42.838661    -22.867785    -4.684798    22.867785    -0.000000    0.000000    -0.000000    -0.060019    17.999939    -0.026101    -0.057081    0.000004    0.000000    -0.057082    -0.000001    -0.000000    -0.057082    0.000000    -0.022324    -0.057082    -0.000000    -0.000000    -0.057081    -0.000000    0.000001    -0.057081    -0.000000    0.014882    -0.057081    0.000000    -0.000000    -0.057081    -0.000000    0.000000    -0.060019    -17.999943    0.011218    -0.057081    -0.000000    0.000000    -0.057081    0.000001    -0.000000    -3.986148    0.665471    1.962871    4.502036    0.819144    4.104786    0.108969    -3.015680    2.070393    6.903259    -1.169395    -4.017791    -28.684050    36.291027    42.838673    22.867786    -4.684808    -22.867790    -0.000000    0.000000    -0.000000    0.060017    17.999943    0.026099    0.057084    0.000003    -0.000000    0.057082    0.000001    0.000002    0.057079    0.000001    0.022322    0.057084    -0.000001    0.000001    0.057080    0.000001    -0.000001    0.057079    0.000001    -0.014884    0.057082    -0.000001    0.000001    0.057080    0.000001    -0.000000    0.060021    -17.999950    -0.011217    0.057079    0.000005    -0.000001    0.057081    -0.000002    0.000001    1.440319    0.573991    3.301284    -0.000000    10.296738    -0.000002    0.598387    -3.879743    8.514048    0.000001    -1.585738    -0.000001    -0.001411    2.949987    -1.429196    -0.000000    6.148776    -0.000000    -1.460066    -2.904626    -1.518501    0.000000    -1.580799    -0.000000    
-5.908746    90.919273    -5.994584    1.367683    -1.610767    1.945341    0.014476    -6.091076    0.136426    -1.085921    7.223251    0.271158    2.801555    -1.403635    -2.502092    2.512428    0.046293    -2.572833    6.638113    1.481718    -3.460747    -1.394838    1.370752    -1.457184    0.039541    -1.870966    1.210932    -5.747780    -0.267274    4.264688    28.659767    36.309246    -42.877766    -22.867783    -4.684816    22.867783    -0.000000    0.000000    -0.000000    -0.113632    17.999918    -0.049637    -0.108070    0.000005    0.000000    -0.108070    -0.000001    -0.000000    -0.108070    -0.000000    -0.042375    -0.108070    0.000000    0.000000    -0.108070    0.000000    0.000000    -0.108070    0.000000    0.028251    -0.108070    0.000000    0.000000    -0.108070    0.000000    -0.000000    -0.113631    -17.999922    0.021387    -0.108070    0.000000    -0.000000    -0.108070    -0.000003    0.000001    -6.376566    0.831794    1.953861    8.015524    1.142602    4.967451    0.150970    -5.276023    1.641354    10.730159    -2.530570    -7.465653    -28.659765    36.309235    42.877762    22.867786    -4.684812    -22.867790    -0.000000    0.000000    -0.000000    0.113634    17.999926    0.049638    0.108069    0.000000    -0.000001    0.108069    -0.000001    -0.000000    0.108070    -0.000000    0.042375    0.108070    0.000000    -0.000000    0.108070    -0.000001    0.000000    0.108072    -0.000001    -0.028250    0.108070    0.000000    0.000000    0.108071    -0.000000    -0.000000    0.113632    -17.999924    -0.021387    0.108072    -0.000001    -0.000000    0.108069    0.000002    -0.000000    1.828161    -0.817962    2.951604    0.000000    13.902161    -0.000000    0.246640    -6.088108    10.599059    0.000000    -2.101889    -0.000000    0.526674    2.826086    -0.933926    0.000000    7.378897    0.000000    -1.971860    -4.161315    -2.468498    0.000000    -1.913858    0.000000    
-6.106497    90.775719    -6.034171    1.181253    -1.668568    2.508385    0.006510    -7.035787    0.053149    -1.386112    9.028530    0.269669    3.491934    -2.508868    -2.703203    2.588734    0.988789    -2.900401    9.071652    1.329435    -4.609105    -3.113561    1.147929    -1.210853    0.094733    -2.679483    2.025564    -8.642777    -0.675685    5.071535    28.626961    36.333935    -42.930698    -22.867786    -4.684816    22.867792    -0.000000    0.000000    -0.000000    -0.185826    17.999868    -0.081598    -0.176729    -0.000003    -0.000000    -0.176730    0.000001    -0.000000    -0.176730    0.000000    -0.069509    -0.176730    -0.000000    0.000000    -0.176728    -0.000000    -0.000001    -0.176730    -0.000000    0.046340    -0.176730    0.000000    0.000001    -0.176729    -0.000000    0.000000    -0.185825    -17.999866    0.035259    -0.176730    0.000003    -0.000000    -0.176730    -0.000003    0.000001    -9.156397    0.316047    1.550126    11.638632    1.371635    5.637688    0.151486    -7.730021    1.126103    13.400325    -4.264558    -10.848096    -28.626961    36.333935    42.930695    22.867786    -4.684810    -22.867785    -0.000000    0.000000    -0.000000    0.185823    17.999868    0.081598    0.176730    -0.000000    0.000000    0.176728    0.000002    -0.000000    0.176729    -0.000001    0.069510    0.176729    0.000000    -0.000000    0.176726    0.000001    -0.000000    0.176729    -0.000001    -0.046340    0.176728    0.000000    0.000000    0.176731    -0.000001    0.000000    0.185825    -17.999868    -0.035258    0.176727    0.000007    -0.000000    0.176727    0.000001    0.000001    2.204665    -2.104949    2.538259    -0.000001    16.655247    -0.000002    -0.755146    -8.108037    11.186971    0.000000    -2.518642    0.000003    0.987468    2.602376    -0.628815    0.000000    8.151458    0.000001    -2.625139    -5.085789    -3.663888    0.000000    -2.151854    0.000000    
